<?xml version="1.0" encoding="UTF-8" standalone="no"?>
<svg
   xmlns:dc="http://purl.org/dc/elements/1.1/"
   xmlns:cc="http://creativecommons.org/ns#"
   xmlns:rdf="http://www.w3.org/1999/02/22-rdf-syntax-ns#"
   xmlns:svg="http://www.w3.org/2000/svg"
   xmlns="http://www.w3.org/2000/svg"
   xmlns:sodipodi="http://sodipodi.sourceforge.net/DTD/sodipodi-0.dtd"
   xmlns:inkscape="http://www.inkscape.org/namespaces/inkscape"
   id="svg8"
   version="1.1"
   viewBox="0 0 51.858334 51.858329"
   height="196"
   width="196"
   sodipodi:docname="favicon.svg"
   inkscape:version="0.92.5 (2060ec1f9f, 2020-04-08)"
   inkscape:export-filename="/home/csindle/Documents/recipes/assets/img/favicon.png"
   inkscape:export-xdpi="96"
   inkscape:export-ydpi="96">
  <sodipodi:namedview
     pagecolor="#ffffff"
     bordercolor="#666666"
     borderopacity="1"
     objecttolerance="10"
     gridtolerance="10"
     guidetolerance="10"
     inkscape:pageopacity="0"
     inkscape:pageshadow="2"
     inkscape:window-width="1866"
     inkscape:window-height="1163"
     id="namedview8"
     showgrid="false"
     fit-margin-top="0"
     fit-margin-left="0"
     fit-margin-right="0"
     fit-margin-bottom="0"
     showguides="false"
     inkscape:zoom="3.6030534"
     inkscape:cx="136.99181"
     inkscape:cy="103.28851"
     inkscape:window-x="54"
     inkscape:window-y="0"
     inkscape:window-maximized="1"
     inkscape:current-layer="text12" />
  <defs
     id="defs2" />
  <metadata
     id="metadata5">
    <rdf:RDF>
      <cc:Work
         rdf:about="">
        <dc:format>image/svg+xml</dc:format>
        <dc:type
           rdf:resource="http://purl.org/dc/dcmitype/StillImage" />
        <dc:title />
      </cc:Work>
    </rdf:RDF>
  </metadata>
  <g
     transform="translate(-87.250122,-49.028827)"
     id="layer1">
    <g
       aria-label="ðŸ½"
       transform="scale(0.80492942,1.2423449)"
       style="font-style:normal;font-variant:normal;font-weight:normal;font-stretch:normal;font-size:90.31505585px;line-height:1.25;font-family:Roboto;-inkscape-font-specification:'Roboto, Normal';font-variant-ligatures:normal;font-variant-caps:normal;font-variant-numeric:normal;font-feature-settings:normal;text-align:start;letter-spacing:-21.67560768px;word-spacing:0px;writing-mode:lr-tb;text-anchor:start;fill:#155799;fill-opacity:1;stroke:none;stroke-width:2.25787592"
       id="text12">
      <path
         style="font-style:normal;font-variant:normal;font-weight:normal;font-stretch:normal;font-size:58.5734024px;font-family:sans-serif;-inkscape-font-specification:'sans-serif, Normal';font-variant-ligatures:normal;font-variant-caps:normal;font-variant-numeric:normal;font-feature-settings:normal;text-align:start;letter-spacing:0px;writing-mode:lr-tb;text-anchor:start;fill:#155799;fill-opacity:1;stroke-width:2.76021409"
         d="m 172.43812,70.600724 c -0.28952,0.205669 -0.74233,0.314832 -1.35847,0.327494 -0.6384,-0.04236 -1.22856,-0.118997 -1.77045,-0.229915 -0.73738,-0.18457 -1.43764,-0.430925 -2.10078,-0.739069 -0.71759,-0.34031 -1.43021,-0.719558 -2.1379,-1.137746 l -1.06154,-0.627275 c -0.38104,-0.225178 -0.71883,-0.445681 -1.01323,-0.661572 -1.45001,-1.024285 -2.90495,-2.009633 -4.36485,-2.956046 -1.42774,-0.969263 -2.83939,-1.949952 -4.23496,-2.942062 -0.29441,-0.215892 -0.64334,-0.463893 -1.04667,-0.744091 -0.37116,-0.303048 -0.74726,-0.567156 -1.12834,-0.792334 -0.27218,-0.160839 -0.6038,-0.314882 -0.99471,-0.46222 -0.30438,-0.137959 -0.66192,-0.202749 -1.07266,-0.194316 -0.59387,0.06768 -1.04051,0.243285 -1.33992,0.526831 -0.29941,0.283543 -0.69162,0.491318 -1.17661,0.623334 -1.00216,0.286888 -2.154,0.255086 -3.45556,-0.09543 -0.87841,-0.226054 -1.70362,-0.525323 -2.47565,-0.897801 -0.77202,-0.37248 -1.51187,-0.767817 -2.21955,-1.186002 l -1.22483,-0.723781 c -0.40328,-0.280228 -0.77943,-0.544313 -1.12834,-0.792334 -1.31885,-0.90493 -2.53007,-1.850904 -3.63366,-2.837921 -1.15802,-1.019185 -2.3049,-2.010864 -3.44065,-2.97503 -1.37577,-1.147859 -2.73546,-2.307145 -4.07906,-3.477857 -1.3436,-1.170712 -2.58451,-2.34353 -3.72273,-3.518465 -0.36126,-0.380918 -0.79923,-0.849028 -1.31391,-1.404324 -0.4825,-0.578155 -0.85118,-1.130903 -1.10605,-1.658252 -0.27715,-0.582366 -0.22267,-1.010665 0.16334,-1.284891 0.22519,-0.159971 0.55923,-0.255595 1.00216,-0.286888 0.76709,-0.04904 1.68386,0.220595 2.75033,0.808939 1.01208,0.556142 1.81747,1.011167 2.41628,1.365016 2.37301,1.360345 4.72488,2.771129 7.05578,4.232228 2.36301,1.438277 4.74218,2.865087 7.13742,4.28048 l 2.04138,1.206305 c 0.68547,0.363132 1.38198,0.753823 2.08967,1.172007 l 4.57271,2.702121 c 1.55645,0.877825 3.12398,1.783201 4.70264,2.716077 l 4.57272,2.702119 c 1.55646,0.877823 3.12398,1.783201 4.70265,2.716076 1.14317,0.675531 2.30243,1.339648 3.47781,1.992296 1.12095,0.620481 2.28019,1.284598 3.4778,1.992295 0.70769,0.418186 1.37825,0.898161 2.01171,1.439916 0.66561,0.518912 0.90934,1.018748 0.73114,1.499527 -0.0422,0.100745 -0.14353,0.208213 -0.30438,0.322478 z"
         id="path4524"
         inkscape:connector-curvature="0"
         inkscape:export-xdpi="96"
         inkscape:export-ydpi="96" />
      <path
         style="font-style:normal;font-variant:normal;font-weight:normal;font-stretch:normal;font-size:58.5734024px;font-family:sans-serif;-inkscape-font-specification:'sans-serif, Normal';font-variant-ligatures:normal;font-variant-caps:normal;font-variant-numeric:normal;font-feature-settings:normal;text-align:start;letter-spacing:0px;writing-mode:lr-tb;text-anchor:start;fill:#155799;fill-opacity:1;stroke-width:2.91012454"
         d="m 162.84069,80.905214 c -0.39248,0.252995 -1.0246,0.305501 -1.89638,0.157516 -1.01757,-0.19598 -2.01228,-0.584203 -2.98411,-1.16467 -1.02693,-0.615935 -1.99869,-1.196431 -2.91543,-1.741407 -1.46747,-0.89992 -2.88131,-1.834413 -4.2417,-2.803364 -1.41543,-1.004447 -2.82119,-1.979644 -4.21725,-2.925594 -1.85598,-1.288433 -4.31772,-2.967344 -7.38518,-5.036728 -3.03177,-2.092391 -6.16399,-4.226525 -9.39666,-6.402411 -0.30481,0.125502 -0.63715,0.233249 -0.99704,0.323253 -0.3599,0.08999 -0.70194,0.168501 -1.02613,0.235501 -1.71179,0.322511 -3.58991,0.07779 -5.63437,-0.734158 -1.78852,-0.692953 -3.5914,-1.625145 -5.40862,-2.796581 -0.66081,-0.425977 -1.30379,-0.863438 -1.92885,-1.312445 -0.58946,-0.471976 -1.15135,-0.926206 -1.68573,-1.362685 -0.31412,-0.294487 -0.87757,-0.81871 -1.69039,-1.572672 -0.83221,-0.812457 -1.56396,-1.583172 -2.19529,-2.312143 -0.59564,-0.751965 -0.78643,-1.196946 -0.57236,-1.33494 0.24976,-0.161001 0.5949,-0.09951 1.03543,0.184477 0.1652,0.106499 0.31258,0.224473 0.44207,0.353998 0.12947,0.129524 0.24932,0.229755 0.35945,0.30075 0.44054,0.283984 0.98301,0.679744 1.62758,1.18719 0.64451,0.507475 1.4073,1.045192 2.28838,1.613161 0.44053,0.283984 0.92641,0.574231 1.45773,0.870685 0.53134,0.296453 1.09827,0.569958 1.70089,0.820452 0.23655,0.0605 0.45528,0.132491 0.65615,0.215984 0.23657,0.0605 0.46342,0.09174 0.6806,0.09373 0.21718,0.002 0.43279,-0.066 0.64685,-0.203999 0.28544,-0.183996 0.36998,-0.451493 0.25365,-0.802475 -0.11319,-0.210994 -0.53749,-0.576471 -1.27274,-1.096444 -0.69957,-0.542974 -1.52713,-1.14544 -2.48266,-1.807405 -0.91984,-0.684967 -1.75709,-1.316685 -2.51172,-1.895156 -0.80973,-0.61397 -1.3441,-1.050442 -1.60315,-1.309433 -0.35288,-0.411477 -0.4223,-0.686219 -0.20824,-0.824214 0.24977,-0.161001 0.53014,-0.164253 0.84116,-0.0098 0.31106,0.154461 0.52161,0.267218 0.63175,0.338215 0.95242,0.521968 2.02467,1.144185 3.21677,1.866642 1.22775,0.699461 2.0619,1.191188 2.50243,1.475173 0.20092,0.08346 0.64956,0.326729 1.34605,0.729705 0.64146,0.36745 1.2716,0.635704 1.89052,0.8047 0.38237,0.108493 0.7341,0.05925 1.0552,-0.147757 0.24975,-0.160997 0.34555,-0.329236 0.28737,-0.504733 -0.0643,-0.45549 -0.53706,-0.967215 -1.41813,-1.535184 l -0.24781,-0.159742 c -0.1652,-0.106499 -0.25751,-0.188976 -0.27686,-0.247503 l -5.28641,-3.407814 c -0.33041,-0.212988 -0.64299,-0.437463 -0.93769,-0.67348 -0.29465,-0.23602 -0.3707,-0.399993 -0.22799,-0.491982 0.32109,-0.206996 1.02922,-0.09551 2.12436,0.334464 1.09514,0.429972 2.30196,1.000937 3.62048,1.712895 1.35417,0.688963 2.59009,1.347673 3.70772,1.976135 1.06257,0.592965 1.75905,0.995941 2.08945,1.208928 0.64146,0.367451 1.30227,0.793427 1.98241,1.277932 0.62508,0.449005 1.21455,0.920966 1.76833,1.415932 0.34975,0.271516 0.64606,0.577482 0.88883,0.917951 0.27843,0.317488 0.53903,0.646471 0.78177,0.98696 0.54059,0.716466 0.75541,1.429937 0.64447,2.140413 -0.0752,0.687479 -0.36922,1.302957 -0.88192,1.846443 3.21018,1.97739 6.86904,4.198016 10.97658,6.66188 1.44803,0.841451 3.30907,1.949138 5.58309,3.323067 2.27404,1.373921 4.40071,2.629852 6.38002,3.767784 1.0075,0.557468 1.91455,1.073192 2.72118,1.547164 0.80665,0.473943 1.54034,0.923932 2.20115,1.349908 1.21146,0.780959 2.20577,1.55992 2.98291,2.336882 0.40796,0.446974 0.61659,0.880459 0.62588,1.300443 0.045,0.396984 -0.11087,0.710474 -0.46772,0.940471 z"
         id="path4517"
         inkscape:connector-curvature="0" />
    </g>
  </g>
</svg>
